# xmcd
#
# Track frame offsets:
#	150
#	13446
#	27041
#	38871
#	52974
#	67102
#	83971
#	96593
#	107810
#	119838
#	136680
#	152293
#	164593
#	176811
#	190514
#	203692
#	215426
#	226915
#	237517
#	248507
#	262688
#	281458
#	293858
#	304042
#	322629
#	335752
#	345727
#
# Disc length: 4751 seconds
#
# Revision: 1
# Processed by: cddbd v1.5.2PL0 Copyright (c) Steve Scherf et al.
# Submitted via: audiograbber 1.83.01
#
DISCID=80128d1b
DTITLE=George Jones - My Collection Of Hits CD2
DYEAR=1900
DGENRE=Country
TTITLE0=Kansas City (& Johnny Paycheck)
TTITLE1=Your Lying Blue Eyes
TTITLE2=She Thinks I Still Care
TTITLE3=Golden Ring (& Tammy Wynette)
TTITLE4=I'm the Only Hell Mama Ever Raised (& Johnny Paycheck)
TTITLE5=The Bottle Let Me Down
TTITLE6=Wreck On The Highway (& Gene Pitney)
TTITLE7=She's My Rock
TTITLE8=Six Foot Deep Six Foot Down
TTITLE9=A Picture Of Me (Without You) (& Lorrie Morgan)
TTITLE10=Choice
TTITLE11=Finally Friday
TTITLE12=Must've Been Drunk (& Merle Haggard)
TTITLE13=Good Hearted Women
TTITLE14=I'm Leavin' Now
TTITLE15=You've Got a Friend in Me (& Kathy Mattea)
TTITLE16=Pyramid of Cans (rare)
TTITLE17=Walk Through This World With Me
TTITLE18=Someone I Used To Know (& Tammy Wynette)
TTITLE19=The Grand Tour
TTITLE20=The Cold Hard Truth
TTITLE21=Hopelessly Yours
TTITLE22=23 - I'm A One Woman Man
TTITLE23=You Don't Seem To Miss Me (& Patty Loveless)
TTITLE24=Tennessee Whiskey
TTITLE25=I Gotta Get Piss Drunk (& Merle Haggard and Willie Nelson)
TTITLE26=Her Name Is
EXTD=
EXTT0=
EXTT1=
EXTT2=
EXTT3=
EXTT4=
EXTT5=
EXTT6=
EXTT7=
EXTT8=
EXTT9=
EXTT10=
EXTT11=
EXTT12=
EXTT13=
EXTT14=
EXTT15=
EXTT16=
EXTT17=
EXTT18=
EXTT19=
EXTT20=
EXTT21=
EXTT22=
EXTT23=
EXTT24=
EXTT25=
EXTT26=
PLAYORDER=
